<?xml version="1.0" encoding="UTF-8" standalone="no"?>
<svg
   xmlns:dc="http://purl.org/dc/elements/1.1/"
   xmlns:cc="http://creativecommons.org/ns#"
   xmlns:rdf="http://www.w3.org/1999/02/22-rdf-syntax-ns#"
   xmlns:svg="http://www.w3.org/2000/svg"
   xmlns="http://www.w3.org/2000/svg"
   viewBox="0 0 745.01251 180.675"
   height="180.675"
   width="745.01251"
   xml:space="preserve"
   version="1.1"
   id="svg2"><metadata
     id="metadata8"><rdf:RDF><cc:Work
         rdf:about=""><dc:format>image/svg+xml</dc:format><dc:type
           rdf:resource="http://purl.org/dc/dcmitype/StillImage" /></cc:Work></rdf:RDF></metadata><defs
     id="defs6" /><g
     transform="matrix(1.25,0,0,-1.25,0,180.675)"
     id="g10"><g
       transform="scale(0.1,0.1)"
       id="g12"><path
         id="path14"
         style="fill:white;fill-opacity:1;fill-rule:nonzero;stroke:none"
         d="m 2194.43,1045.16 -783.97,0 0,-213.637 276.56,0 0,-804.1597 230.83,0 0,804.1597 276.58,0 0,213.637" /><path
         id="path16"
         style="fill:white;fill-opacity:1;fill-rule:nonzero;stroke:none"
         d="m 2280.39,496.797 c 7.18,31.66 14.41,66.25 44.63,99.375 21.62,23.027 59.07,48.945 112.35,48.945 38.84,0 80.64,-14.375 107.99,-41.726 31.68,-33.137 37.42,-74.934 41.74,-106.594 l -306.71,0 z m 360.01,-192.93 c -27.36,-53.281 -69.12,-132.512 -190.08,-132.512 -119.52,0 -172.8,93.606 -171.36,187.219 l 537.09,0 c -2.84,84.942 -8.62,231.856 -106.53,336.973 -96.48,103.672 -226.1,107.988 -270.75,107.988 -296.6,0 -385.89,-233.281 -385.89,-414.707 C 2052.88,142.578 2209.83,0 2433.04,0 2554,0 2651.9,46.0938 2716.73,106.582 c 38.85,35.996 64.79,73.457 90.7,112.305 l -167.03,84.98" /><path
         id="path18"
         style="fill:white;fill-opacity:1;fill-rule:nonzero;stroke:none"
         d="m 3132.07,711.387 c 21.64,23.015 36.02,40.293 74.91,59.023 34.59,14.403 83.53,27.395 136.77,27.395 44.71,0 95.06,-8.684 133.97,-30.266 79.22,-41.746 99.32,-109.434 99.32,-226.074 l 0,-514.1017 -220.28,0 0,423.3787 c 0,67.715 -1.42,92.168 -10.1,112.305 -17.24,40.344 -56.15,57.617 -99.31,57.617 -116.68,0 -116.68,-93.594 -116.68,-187.18 l 0,-406.1207 -221.78,0 0,750.2537 223.18,0 0,-66.23" /><path
         id="path20"
         style="fill:white;fill-opacity:1;fill-rule:nonzero;stroke:none"
         d="m 4112.88,387.383 c -1.43,-77.774 -4.3,-146.875 -77.74,-192.969 -23.07,-14.375 -49,-24.473 -76.37,-24.473 -51.83,0 -83.53,40.352 -83.53,76.329 0,57.597 57.65,79.179 95.08,93.574 l 142.56,47.539 z M 3911.27,565.93 c 5.73,27.371 18.68,87.859 116.62,87.859 79.24,0 82.11,-57.617 84.99,-92.195 l 0,-40.285 c -93.62,-17.313 -236.16,-43.223 -296.68,-69.129 -61.92,-25.969 -158.36,-95.032 -158.36,-216.028 0,-105.117 73.45,-228.90591 246.23,-228.90591 110.88,0 174.22,47.48831 230.39,89.25781 l 0,-69.1406 217.44,0 c -17.31,25.918 -21.62,37.4805 -21.62,118.1057 l 0,437.715 c 0,194.433 -223.15,216.035 -315.33,216.035 -87.91,0 -177.13,-11.543 -246.24,-66.231 -67.67,-53.261 -74.88,-115.215 -79.21,-167.058 l 221.77,0" /><path
         id="path22"
         style="fill:white;fill-opacity:1;fill-rule:nonzero;stroke:none"
         d="m 4670.63,701.27 c 48.96,41.796 102.24,74.921 217.44,86.406 l 0,-195.821 -73.46,-11.523 c -106.56,-18.738 -138.23,-34.57 -138.23,-129.59 l 0,-423.3787 -221.77,0 0,753.1637 216.02,0 0,-79.257" /><path
         id="path24"
         style="fill:white;fill-opacity:1;fill-rule:nonzero;stroke:none"
         d="m 4973.15,1045.45 218.85,0 0,-171.368 -218.85,0 0,171.368 z m 0,-264.923 218.85,0 0,-753.1637 -218.85,0 0,753.1637" /><path
         id="path26"
         style="fill:white;fill-opacity:1;fill-rule:nonzero;stroke:none"
         d="m 5379.76,280.871 c 60.5,-59.113 135.38,-103.762 218.88,-103.762 53.3,0 133.9,17.305 133.9,73.477 0,25.898 -15.82,35.996 -28.84,43.203 -33.09,17.266 -84.87,21.621 -128.07,28.789 -33.13,5.742 -67.72,12.949 -100.8,23.047 -46.13,12.949 -92.19,31.66 -125.31,64.758 -33.13,33.133 -56.2,84.988 -56.2,141.18 0,123.789 106.61,251.972 316.85,251.972 177.14,0 283.68,-76.328 335.5,-112.285 l -136.8,-126.758 c -70.58,54.707 -136.82,74.903 -188.62,74.903 -86.46,0 -106.57,-34.551 -106.57,-56.211 0,-43.184 47.5,-51.797 119.51,-64.727 151.25,-27.402 326.89,-67.715 326.89,-246.289 0,-177.0899 -178.51,-263.50394 -355.7,-263.50394 -208.81,0 -316.82,100.82794 -364.28,145.41794 l 139.66,126.789" /><path
         id="path28"
         style="fill:white;fill-opacity:1;fill-rule:nonzero;stroke:none"
         d="m 0,427.566 1133.89,0 0,35 -1133.89,0 0,-35 z" /><path
         id="path30"
         style="fill:white;fill-opacity:1;fill-rule:nonzero;stroke:none"
         d="m 0,831.484 1133.89,0 0,213.672 -1133.89,0 0,-213.672 z" /><path
         id="path32"
         style="fill:white;fill-opacity:1;fill-rule:nonzero;stroke:none"
         d="m 0,1312.68 1133.89,0 0,53.4883 -1133.89,0 0,-53.4883 z" /><path
         id="path34"
         style="fill:white;fill-opacity:1;fill-rule:nonzero;stroke:none"
         d="m 0,510.313 1133.89,0 0,53.4297 -1133.89,0 0,-53.4297 z" /><path
         id="path36"
         style="fill:white;fill-opacity:1;fill-rule:nonzero;stroke:none"
         d="m 0,1140.25 1133.89,0 0,106.914 -1133.89,0 0,-106.914 z" /><path
         id="path38"
         style="fill:white;fill-opacity:1;fill-rule:nonzero;stroke:none"
         d="m 0,629.258 1133.89,0 0,106.914 -1133.89,0 0,-106.914 z" /><path
         id="path40"
         style="fill:white;fill-opacity:1;fill-rule:nonzero;stroke:none"
         d="m 0,1410.35 1133.89,0 0,35 -1133.89,0 0,-35 z" /></g></g></svg>